<?xml version="1.0" encoding="utf-8"?>
<!-- Generator: Adobe Illustrator 16.0.0, SVG Export Plug-In . SVG Version: 6.00 Build 0)  -->
<!DOCTYPE svg PUBLIC "-//W3C//DTD SVG 1.1//EN" "http://www.w3.org/Graphics/SVG/1.1/DTD/svg11.dtd">
<svg version="1.1" id="图层_1" xmlns="http://www.w3.org/2000/svg" xmlns:xlink="http://www.w3.org/1999/xlink" x="0px" y="0px"
	 width="300px" height="180px" viewBox="0 0 300 180" enable-background="new 0 0 300 180" xml:space="preserve">
<g>
	<g>
		<defs>
			<rect id="SVGID_1_" x="-236" y="-320" width="771.84" height="820.721"/>
		</defs>
		<clipPath id="SVGID_2_">
			<use xlink:href="#SVGID_1_"  overflow="visible"/>
		</clipPath>
		<path clip-path="url(#SVGID_2_)" d="M-164.222,499.723c-18.168,0-33.105-7.473-51.515-25.736
			c-12.621-14.115-19.84-32.244-20.383-51.174v-670.926c0-22.164,5.734-36.477,20.383-51.125
			c16.578-10.457,31.805-20.289,51.515-20.289h399.719c2.508,0,8.914,6.312,12,9.347L456.153-96.899
			c5.203,4.769,9.492,14.504,9.492,17.398v55.703c0,12.387-8.387,20.672-20.867,20.672c-12.863,0-20.863-7.902-20.863-20.672
			v-32.718h-141c-17.926,0-37.441-3.614-55.609-21.59c-9.539-9.059-14.938-35.899-14.938-52.09v-147.41h-376.59
			c-6.121,0-14.507,0-22.121,7.566c-7.66,7.52-7.66,15.855-7.66,21.926v670.926c0,6.07,0,14.41,7.66,21.924
			c7.567,7.568,16,7.568,22.121,7.568h558.454c6.07,0,14.504,0,22.117-7.568c7.613-7.518,7.613-15.854,7.613-21.924v-17.012
			c0-12.771,8-20.625,20.867-20.625c6.984,0,14.551,4.051,18.984,10.074c1.879,2.648,2.363,32.961,2.363,32.961
			c0,22.215-5.785,36.621-20.387,51.223c-16.574,10.553-31.898,20.289-51.512,20.289H-164.222z M245.81-130.149
			c0,11.468,6.988,40.961,41.25,40.961h124.566L245.86-253.895L245.81-130.149z M245.81-130.149"/>
	</g>
	<path d="M534.892,233.625c-0.055,13.27-10.824,24-24.094,24H90.068c-13.29,0.023-24.09-10.711-24.145-24
		c0.055-13.289,10.855-24.023,24.145-23.996h420.73C524.067,209.629,534.837,220.355,534.892,233.625L534.892,233.625z
		 M534.892,233.625"/>
	<path d="M247.497,77.495c4.527,4.473,7.078,10.571,7.078,16.938s-2.551,12.465-7.078,16.938L107.075,250.73
		c-9.468,9.309-24.648,9.309-34.117,0c-4.531-4.48-7.082-10.586-7.082-16.961c0-6.371,2.551-12.48,7.082-16.961L213.333,77.593
		c4.516-4.551,10.652-7.113,17.063-7.133C236.802,70.441,242.954,72.972,247.497,77.495L247.497,77.495z M247.497,77.495"/>
</g>
</svg>
