<?xml version="1.0" encoding="utf-8"?>
<!-- Generator: Adobe Illustrator 16.0.0, SVG Export Plug-In . SVG Version: 6.00 Build 0)  -->
<!DOCTYPE svg PUBLIC "-//W3C//DTD SVG 1.1//EN" "http://www.w3.org/Graphics/SVG/1.1/DTD/svg11.dtd">
<svg version="1.1" id="图层_1" xmlns="http://www.w3.org/2000/svg" xmlns:xlink="http://www.w3.org/1999/xlink" x="0px" y="0px"
	 width="300px" height="180px" viewBox="0 0 300 180" enable-background="new 0 0 300 180" xml:space="preserve">
<g>
	<g>
		<path d="M492.027,169.539c-42.602-21.301-26.215-4.918-79.465-27.035c-52.43-22.117-65.535-29.492-65.535-29.492l-0.82-50.789
			c0,0,19.66-14.746,25.395-63.078c12.289,4.094,16.387-13.926,17.203-26.215c0.82-10.648,7.375-45.875-7.371-42.598
			c3.277-23.757,5.734-45.058,4.098-55.707c-4.098-39.32-31.133-80.281-98.305-82.738c-57.344,3.277-95.027,44.238-98.305,82.738
			c-1.641,10.648,1.637,32.77,4.098,55.707c-15.566-3.277-8.195,31.95-7.375,42.598c0.82,11.469,4.914,29.492,17.203,26.215
			c6.555,48.332,25.395,63.078,25.395,63.078l-0.816,50.789c18.02,4.918,20.477,0.82,56.523,18.844
			c84.379,42.599,84.379,280.984,84.379,280.984c0,15.566-10.652,27.852-24.578,31.129h189.234
			c13.926,0,25.395-11.469,25.395-26.215C560.02,418.575,560.02,203.125,492.027,169.539L492.027,169.539z M492.027,169.539"/>
		<path d="M264.289,153.973c-47.516-23.758-28.672-5.734-86.836-29.492c-57.344-23.754-72.09-32.766-72.09-32.766l-0.82-55.707
			c0,0,22.121-17.203,27.855-69.633c13.106,4.098,18.02-16.382,18.84-28.671c0.82-12.29,8.191-50.79-8.191-47.512
			c3.277-26.215,5.734-48.332,4.914-61.442c-4.094-43.418-33.586-88.472-108.133-91.75c-63.078,3.278-104.039,48.332-108.953,91.75
			c-1.641,12.289,1.637,36.047,4.094,61.442c-16.383-3.278-9.828,35.222-9.012,47.512c0.82,13.109,4.918,32.769,18.844,28.671
			c7.371,52.43,27.851,69.633,27.851,69.633l-0.82,55.707c0,0-13.105,8.192-72.09,32.766c-57.344,23.758-39.32,4.918-86.832,28.672
			C-260,190.02-260,415.297-260,415.297c0,15.566,13.105,27.855,27.852,27.855h541.492c15.566,0,27.852-13.109,27.852-28.676
			C338.836,416.118,338.836,191.656,264.289,153.973L264.289,153.973z M264.289,153.973"/>
	</g>
</g>
</svg>
