<?xml version="1.0" encoding="utf-8"?>
<!-- Generator: Adobe Illustrator 16.0.0, SVG Export Plug-In . SVG Version: 6.00 Build 0)  -->
<!DOCTYPE svg PUBLIC "-//W3C//DTD SVG 1.1//EN" "http://www.w3.org/Graphics/SVG/1.1/DTD/svg11.dtd">
<svg version="1.1" id="图层_1" xmlns="http://www.w3.org/2000/svg" xmlns:xlink="http://www.w3.org/1999/xlink" x="0px" y="0px"
	 width="300px" height="180px" viewBox="0 0 300 180" enable-background="new 0 0 300 180" xml:space="preserve">
<g>
	<g>
		<path d="M-64.977,127.004l20.832-29.148l16.36,52.789l26.965-4.793L70.055,40.656l85.964,75.223h24.664L316.875-40.312
			l26.773,27.539l11.953-87.039l-88.645,7.988l24.289,25.055L169.18,78.047L79.066-0.812l-28.5,3.636l-71.961,105.258
			l-16.101-52.535l-26.719,4.477l-31.953,44.734L-64.977,127.004z M-202-137.887v342.168c0,60.836,49.398,110.117,110.305,110.117
			H66.414v76.691h-96.117c-10.16,0-18.406,8.238-18.406,18.336c0,10.16,8.246,20.008,18.406,20.008h358.398
			c10.164,0,18.406-9.848,18.406-20.008c0-10.098-8.242-18.336-18.406-18.336h-89.727v-76.691h151.719
			c60.906,0,110.305-49.281,110.305-110.117v-342.168c0-60.839-49.398-110.113-110.305-110.113H-91.695
			C-152.602-248-202-198.726-202-137.887L-202-137.887z M-150.871-111.89c0-50.68,41.16-91.774,91.898-91.774h416.938
			c50.738,0,91.902,41.094,91.902,91.774v308.55c0,50.676-41.164,66.211-91.902,66.211H-58.973
			c-50.738,0-91.898-15.535-91.898-66.211V-111.89z M-150.871-111.89"/>
	</g>
</g>
</svg>
