<?xml version="1.0" encoding="utf-8"?>
<!-- Generator: Adobe Illustrator 16.0.0, SVG Export Plug-In . SVG Version: 6.00 Build 0)  -->
<!DOCTYPE svg PUBLIC "-//W3C//DTD SVG 1.1//EN" "http://www.w3.org/Graphics/SVG/1.1/DTD/svg11.dtd">
<svg version="1.1" id="图层_1" xmlns="http://www.w3.org/2000/svg" xmlns:xlink="http://www.w3.org/1999/xlink" x="0px" y="0px"
	 width="300px" height="180px" viewBox="0 0 300 180" enable-background="new 0 0 300 180" xml:space="preserve">
<g>
	<g>
		<defs>
			<rect id="SVGID_1_" x="-260" y="-320" width="819.84" height="820.721"/>
		</defs>
		<clipPath id="SVGID_2_">
			<use xlink:href="#SVGID_1_"  overflow="visible"/>
		</clipPath>
		<path clip-path="url(#SVGID_2_)" d="M149.482-319.48C-75.8-319.48-260.12-135.16-260.12,90.122
			c0,225.276,184.32,409.597,409.602,409.597c225.277,0,409.597-184.32,409.597-409.597
			C559.079-135.16,374.759-319.48,149.482-319.48L149.482-319.48z M149.482,484.359c-220.161,0-394.243-174.078-394.243-394.237
			c0-220.161,174.082-394.243,394.243-394.243c220.16,0,394.238,174.082,394.238,394.243
			C543.72,310.281,369.642,484.359,149.482,484.359L149.482,484.359z M149.482,484.359"/>
	</g>
	<path d="M-9.241,8.2c-46.078,0-81.918,35.84-81.918,81.922c0,46.079,35.84,81.919,81.918,81.919
		c46.082,0,81.922-35.84,81.922-81.919C72.681,44.04,36.841,8.2-9.241,8.2L-9.241,8.2z M-9.241,156.68
		c-35.84,0-66.559-30.719-66.559-66.558c0-35.84,30.719-66.563,66.559-66.563s66.562,30.723,66.562,66.563
		C57.321,125.961,26.599,156.68-9.241,156.68L-9.241,156.68z M154.599,484.359h394.242c0,0,5.117,0,5.117,5.121v5.117
		c0,0,0,5.121-5.117,5.121H154.599c-5.117,0-5.117,0-5.117-5.121L154.599,484.359C149.482,484.359,149.482,484.359,154.599,484.359
		L154.599,484.359z M149.482-150.519c-46.082,0-81.922,35.84-81.922,81.918c0,46.082,35.84,81.922,81.922,81.922
		c46.078,0,81.917-35.84,81.917-81.922C231.399-114.679,195.56-150.519,149.482-150.519L149.482-150.519z M149.482-2.039
		c-35.84,0-66.563-30.722-66.563-66.562c0-35.84,30.723-66.559,66.563-66.559c35.839,0,66.558,30.719,66.558,66.559
		C216.04-32.761,185.321-2.039,149.482-2.039L149.482-2.039z M308.2,8.2c-46.082,0-81.922,35.84-81.922,81.922
		c0,46.079,35.84,81.919,81.922,81.919c46.078,0,81.918-35.84,81.918-81.919C390.118,44.04,354.278,8.2,308.2,8.2L308.2,8.2z
		 M308.2,156.68c-35.84,0-66.559-30.719-66.559-66.558c0-35.84,30.719-66.563,66.559-66.563s66.559,30.723,66.559,66.563
		C374.759,125.961,344.04,156.68,308.2,156.68L308.2,156.68z M149.482,166.918c-46.082,0-81.922,35.84-81.922,81.922
		c0,46.078,35.84,81.918,81.922,81.918c46.078,0,81.917-35.84,81.917-81.918C231.399,202.758,195.56,166.918,149.482,166.918
		L149.482,166.918z M149.482,315.398c-35.84,0-66.563-30.719-66.563-66.559s30.723-66.557,66.563-66.557
		c35.839,0,66.558,30.717,66.558,66.557S185.321,315.398,149.482,315.398L149.482,315.398z M149.482,315.398"/>
</g>
</svg>
