<?xml version="1.0" encoding="utf-8"?>
<!-- Generator: Adobe Illustrator 16.0.0, SVG Export Plug-In . SVG Version: 6.00 Build 0)  -->
<!DOCTYPE svg PUBLIC "-//W3C//DTD SVG 1.1//EN" "http://www.w3.org/Graphics/SVG/1.1/DTD/svg11.dtd">
<svg version="1.1" id="图层_1" xmlns="http://www.w3.org/2000/svg" xmlns:xlink="http://www.w3.org/1999/xlink" x="0px" y="0px"
	 width="300px" height="180px" viewBox="0 0 300 180" enable-background="new 0 0 300 180" xml:space="preserve">
<g>
	<g>
		<path d="M-32.68-268h-139.929c-10.094,0-19.551,3.98-26.657,11.191c-7.05,7.184-10.875,16.703-10.73,26.801
			c0,0,0.129,8.805,0.129,12.039c0,90.09,17.562,177.492,52.195,259.781c33.469,79.469,81.363,150.835,142.363,212.141
			c61.004,61.27,132.036,109.387,211.137,143c81.91,34.824,168.895,52.469,258.574,52.469c5.336,0,10.859-0.082,16.398-0.223
			c20.605-0.543,36.688-17.07,36.625-37.642c-0.031-11.562-0.32-139.358-0.32-139.358c-0.016-25.395-17.02-47.961-41.352-54.871
			l-115.152-32.642c-6.738-1.91-13.695-2.866-20.688-2.866c-19.996,0-38.883,7.737-53.195,21.75l-72.77,71.366
			C102.012,222.519,17.906,138.414-34.844,36.16l70.602-72.738C54.707-56.129,61.887-84.567,54.5-110.809L21.953-226.488
			C15.074-250.93-7.395-268-32.68-268L-32.68-268z M-32.68-268"/>
		<path d="M-32.68-268h-139.929c-10.094,0-19.551,3.98-26.657,11.191c-7.05,7.184-10.875,16.703-10.73,26.801
			c0,0,0.129,8.805,0.129,12.039c0,90.09,17.562,177.492,52.195,259.781c33.469,79.469,81.363,150.835,142.363,212.141
			c61.004,61.27,132.036,109.387,211.137,143c81.91,34.824,168.895,52.469,258.574,52.469c5.336,0,10.859-0.082,16.398-0.223
			c20.605-0.543,36.688-17.07,36.625-37.642c-0.031-11.562-0.32-139.358-0.32-139.358c-0.016-25.395-17.02-47.961-41.352-54.871
			l-115.152-32.642c-6.738-1.91-13.695-2.866-20.688-2.866c-19.996,0-38.883,7.737-53.195,21.75l-72.77,71.366
			C102.012,222.519,17.906,138.414-34.844,36.16l70.602-72.738C54.707-56.129,61.887-84.567,54.5-110.809L21.953-226.488
			C15.074-250.93-7.395-268-32.68-268L-32.68-268z M-32.68-268"/>
	</g>
</g>
</svg>
