<?xml version="1.0" encoding="utf-8"?>
<!-- Generator: Adobe Illustrator 16.0.0, SVG Export Plug-In . SVG Version: 6.00 Build 0)  -->
<!DOCTYPE svg PUBLIC "-//W3C//DTD SVG 1.1//EN" "http://www.w3.org/Graphics/SVG/1.1/DTD/svg11.dtd">
<svg version="1.1" id="图层_1" xmlns="http://www.w3.org/2000/svg" xmlns:xlink="http://www.w3.org/1999/xlink" x="0px" y="0px"
	 width="300px" height="180px" viewBox="0 0 300 180" enable-background="new 0 0 300 180" xml:space="preserve">
<g>
	<g>
		<path d="M533.129,64.594c-14.359,0-26,11.64-26,26c0,163.578-110.535,301.816-260.754,344.168
			c56.52-56.581,121.855-162,121.855-346.727c0-318.996-194.707-400.945-202.996-404.265c-1.984-0.75-4.043-1.286-6.141-1.59
			l-6-0.871c-1.148-0.204-2.313-0.309-3.481-0.309C-76.293-318.988-260-135.184-260,90.605
			c0,225.786,183.707,409.594,409.645,409.594c225.738,0,409.546-183.758,409.546-409.594c-0.035-14.371-11.691-26-26.063-26
			 M45.406-251.391c-33.328,35.282-68.558,87.5-91.078,162.817h-113.93C-114.211-166.723-41-224.867,45.395-251.391
			 M-173.223-63.254c1.289,0.449,2.641,0.691,4,0.723h116.481C-63.004-20.652-69.184,27.734-69.543,83.387h-138.289
			C-206.883,32.598-195.082-17.402-173.223-63.254 M-166.312,257.871c-24.411-45.867-38.461-96.535-41.157-148.426H-69.23
			c1.589,56.52,9.468,105.27,21.199,146.996h-112.641c-1.965-0.046-3.91,0.43-5.629,1.383 M-151.91,282.453h111.996
			c24.32,70.809,59.699,119.5,92.211,152.109c-84.359-24.046-157-78.132-204.219-152.059 M124.305,427.75
			c-30.051-21-77.207-64.719-108.75-145.246h108.75V427.75 M124.305,256.441H6.309c-12.852-40.496-21.711-88.996-23.5-146.996
			h141.496V256.441 M124.305,83.336H-17.473c0.36-56.93,7.469-105.168,18.469-145.918h123.309V83.336 M124.305-88.594H8.996
			c31.231-92.109,83-140.539,115.301-162.996v162.996 M176.293-250.129c32.313,22.996,82.742,71.316,113.41,161.535H176.324
			v-161.535 M176.324-62.582h121.34c11,40.758,18.129,88.996,18.48,145.918h-139.82V-62.582 M176.324,109.414h139.57
			c-1.793,58-10.602,106.551-23.453,147H176.324V109.414 M176.324,426.59V282.594h106.898
			c-30.867,78.898-76.699,122.367-106.906,143.996 M491.25-2.883c-0.02,13.235,7.938,25.18,20.16,30.262
			c12.223,5.082,26.301,2.297,35.672-7.051c9.371-9.351,12.184-23.426,7.129-35.656c-5.055-12.235-16.984-20.219-30.219-20.227
			C505.93-35.566,491.277-20.941,491.25-2.883 M491.25-62.223c15.465,0,28-12.535,28-28c0-15.465-12.535-28-28-28s-28,12.535-28,28
			c0,7.426,2.949,14.547,8.203,19.797C476.703-65.172,483.824-62.223,491.25-62.223 M437.902-147.16
			c11.395,0,20.629-9.238,20.629-20.633c0-11.391-9.234-20.629-20.629-20.629s-20.629,9.238-20.629,20.629
			c0,5.473,2.172,10.719,6.039,14.59C427.184-149.336,432.43-147.16,437.902-147.16"/>
	</g>
</g>
</svg>
