<?xml version="1.0" encoding="utf-8"?>
<!-- Generator: Adobe Illustrator 16.0.0, SVG Export Plug-In . SVG Version: 6.00 Build 0)  -->
<!DOCTYPE svg PUBLIC "-//W3C//DTD SVG 1.1//EN" "http://www.w3.org/Graphics/SVG/1.1/DTD/svg11.dtd">
<svg version="1.1" id="图层_1" xmlns="http://www.w3.org/2000/svg" xmlns:xlink="http://www.w3.org/1999/xlink" x="0px" y="0px"
	 width="300px" height="180px" viewBox="0 0 300 180" enable-background="new 0 0 300 180" xml:space="preserve">
<g>
	<path fill-rule="evenodd" clip-rule="evenodd" d="M539.046,41.924L452.594-44.53v-96.087c0-39.336-31.893-71.229-71.228-71.229
		h-96.105l-86.97-86.988c-26.889-26.888-70.479-26.888-97.369,0l-86.988,86.988h-95.552c-39.336,0-71.228,31.893-71.228,71.229
		v95.553l-86.987,86.988c-26.889,26.889-26.889,70.481,0,97.37l86.987,86.971v96.104c0,39.336,31.892,71.229,71.228,71.229h96.104
		l86.436,86.436c26.888,26.889,70.48,26.889,97.368,0l86.436-86.436h96.641c39.336,0,71.228-31.894,71.228-71.229V225.73
		l86.452-86.437C565.918,112.405,565.918,68.813,539.046,41.924L539.046,41.924z M84.629,268.947L-81.618,101.347l44.002-20.318
		L79.732,172.45L347.141-87.196l34.226,15.226L84.629,268.947L84.629,268.947z"/>
</g>
</svg>
