<?xml version="1.0" encoding="utf-8"?>
<!-- Generator: Adobe Illustrator 16.0.0, SVG Export Plug-In . SVG Version: 6.00 Build 0)  -->
<!DOCTYPE svg PUBLIC "-//W3C//DTD SVG 1.1//EN" "http://www.w3.org/Graphics/SVG/1.1/DTD/svg11.dtd">
<svg version="1.1" id="图层_1" xmlns="http://www.w3.org/2000/svg" xmlns:xlink="http://www.w3.org/1999/xlink" x="0px" y="0px"
	 width="300px" height="180px" viewBox="0 0 300 180" enable-background="new 0 0 300 180" xml:space="preserve">
<g>
	<path d="M534-107L93.68-235L-234-107L206.32,51.719L534-107z M-85.52-107l184.321-76.801L385.52-96.762L196.078-4.602L-85.52-107z
		 M467.441-4.602L534,15.879L206.32,174.603L-234,15.879l66.559-30.719L-106,10.762l307.199,107.519L400.879,21L467.441-4.602z
		 M467.441,113.16L534,133.642L206.32,292.359L-234,133.642l66.559-25.603L-106,128.521l307.199,112.64L406,138.763L467.441,113.16z
		 M462.32,230.922L534,256.521L206.32,415.238L-234,256.521l76.801-30.72l66.558,25.598l291.84,102.402l199.68-92.159
		L462.32,230.922z M462.32,230.922"/>
</g>
</svg>
