<?xml version="1.0" standalone="no"?><!DOCTYPE svg PUBLIC "-//W3C//DTD SVG 1.1//EN" "http://www.w3.org/Graphics/SVG/1.1/DTD/svg11.dtd"><svg t="1503113353065" class="icon" style="" viewBox="0 0 1024 1024" version="1.1" xmlns="http://www.w3.org/2000/svg" p-id="5485" xmlns:xlink="http://www.w3.org/1999/xlink" width="128" height="128"><defs><style type="text/css"></style></defs><path d="M522.069333 967.111111c-250.936889 0-455.111111-204.174222-455.111111-455.111111s204.174222-455.111111 455.111111-455.111111 455.111111 204.174222 455.111111 455.111111-204.174222 455.111111-455.111111 455.111111z m0-848.668444C305.038222 118.442667 128.512 294.968889 128.512 512s176.526222 393.557333 393.557333 393.557333S915.626667 729.031111 915.626667 512s-176.583111-393.557333-393.557334-393.557333z" fill="#2198f2" p-id="5486"></path><path d="M564.565333 232.391111H480.483556c-34.816 0-63.032889 28.728889-63.032889 64.113778s28.216889 64.113778 63.032889 64.113778h84.081777c34.816 0 63.032889-28.728889 63.032889-64.113778s-28.216889-64.113778-63.032889-64.113778z m0 85.504H480.483556c-11.548444 0-20.992-9.614222-20.992-21.390222s9.443556-21.390222 20.992-21.390222h84.081777c11.548444 0 20.992 9.614222 20.992 21.390222a21.219556 21.219556 0 0 1-20.992 21.390222z m0 128.227556H480.483556c-34.816 0-63.032889 28.728889-63.032889 64.113777s28.216889 64.113778 63.032889 64.113778h84.081777c34.816 0 63.032889-28.728889 63.032889-64.113778s-28.216889-64.113778-63.032889-64.113777z m0 85.504H480.483556a21.219556 21.219556 0 0 1-20.992-21.390223c0-11.776 9.443556-21.390222 20.992-21.390222h84.081777c11.548444 0 20.992 9.614222 20.992 21.390222a21.219556 21.219556 0 0 1-20.992 21.390223z m0 128.227555H480.483556c-34.816 0-63.032889 28.728889-63.032889 64.113778s28.216889 64.113778 63.032889 64.113778h84.081777c34.816 0 63.032889-28.728889 63.032889-64.113778s-28.216889-64.113778-63.032889-64.113778z m0 85.504H480.483556a21.219556 21.219556 0 0 1-20.992-21.390222c0-11.776 9.443556-21.390222 20.992-21.390222h84.081777c11.548444 0 20.992 9.614222 20.992 21.390222a21.219556 21.219556 0 0 1-20.992 21.390222z m-231.139555-42.780444c-22.471111 0-43.576889-8.931556-59.448889-25.031111a85.902222 85.902222 0 0 1-24.576-60.472889c0-22.869333 8.760889-44.316444 24.576-60.472889 15.928889-16.156444 36.977778-25.031111 59.448889-25.031111H375.466667v-42.723556h-42.040889c-69.632 0-126.065778 57.400889-126.065778 128.227556s56.433778 128.227556 126.065778 128.227555v42.723556l63.032889-64.113778-63.032889-64.113778v42.780445z m378.254222-427.463111h-42.040889v42.723555h42.040889c22.471111 0 43.576889 8.931556 59.448889 25.031111 15.928889 16.156444 24.576 37.603556 24.576 60.472889 0 22.869333-8.760889 44.316444-24.576 60.472889-15.928889 16.099556-36.977778 25.031111-59.448889 25.031111v-42.723555l-63.032889 64.113777 63.032889 64.113778v-42.723555c69.632 0 126.065778-57.400889 126.065778-128.227556s-56.433778-128.284444-126.065778-128.284444z" fill="#2198f2" p-id="5487"></path></svg>