<?xml version="1.0" standalone="no"?><!DOCTYPE svg PUBLIC "-//W3C//DTD SVG 1.1//EN" "http://www.w3.org/Graphics/SVG/1.1/DTD/svg11.dtd"><svg t="1503112764771" class="icon" style="" viewBox="0 0 1024 1024" version="1.1" xmlns="http://www.w3.org/2000/svg" p-id="5179" xmlns:xlink="http://www.w3.org/1999/xlink" width="48" height="48"><defs><style type="text/css"></style></defs><path d="M943.96921 572.38912 943.96921 572.38912c-59.841786-59.841786-157.388764-59.841786-217.23055 0-27.853189 27.853189-45.854377 65.801639-45.854377 107.642238s17.879558 79.667419 43.786673 107.642238l0 1.946074 0 0c19.947262 19.947262 55.949638 33.934672 83.924457 39.894524l0 103.628459L437.868248 933.142654C258.464518 933.021024 258.464518 658.016391 437.868248 658.016391l115.548165 0c137.441501 0 129.535574-203.243141 0-203.243141L205.190733 454.773251l0-103.628459c27.853189-5.959853 71.274973-19.947262 91.222235-39.894524l0 0 0 0c59.841786-59.841786 59.841786-157.388764 0-217.23055C236.571182 36.245635 140.970279 34.299561 81.128493 92.073643l-1.946074 1.946074c-59.841786 59.841786-59.841786 155.442689-1.946074 215.162846l1.946074 1.946074c19.947262 19.947262 54.733341 33.934672 82.70816 39.894524l0 109.588312c0 19.947262 15.933484 35.880746 35.880746 37.82682l359.658867 0c73.707566 0 77.721345 115.548165 0 115.548165l-115.548165 0c-237.177812 0-237.177812 362.699608 0 362.699608l384.349685 0c19.947262-1.946074 33.934672-17.879558 33.934672-35.880746l0-111.656016c27.853189-5.959853 63.977194-19.947262 83.924457-39.894524 27.853189-27.853189 45.854377-67.747714 45.854377-109.588312C989.823587 640.136833 971.944029 600.242309 943.96921 572.38912L943.96921 572.38912zM112.022423 280.721226 112.022423 280.721226c-39.772895-42.448747-39.772895-111.534387 0-151.307281l2.675852-2.675852c39.772895-39.772895 106.182682-39.772895 148.753059 0 39.772895 42.448747 39.772895 108.858534 0 151.307281C221.002587 320.61575 154.5928 320.61575 112.022423 280.721226L112.022423 280.721226zM910.642687 758.117591C868.437199 800.323079 802.392301 800.323079 760.186813 758.117591l0 0c-18.487706-18.487706-31.623708-44.88134-31.623708-76.505048 0-29.069486 10.581779-55.341489 31.623708-73.829196 42.205488-42.205488 110.804609-42.205488 150.334244 0l0 0c18.487706 18.487706 31.623708 47.435562 31.623708 73.829196C942.266395 710.682029 931.684616 737.075662 910.642687 758.117591L910.642687 758.117591zM892.15498 739.751514" p-id="5180" fill="#2198f2"></path></svg>