<?xml version="1.0" standalone="no"?><!DOCTYPE svg PUBLIC "-//W3C//DTD SVG 1.1//EN" "http://www.w3.org/Graphics/SVG/1.1/DTD/svg11.dtd"><svg t="1503114752827" class="icon" style="" viewBox="0 0 1024 1024" version="1.1" xmlns="http://www.w3.org/2000/svg" p-id="10135" xmlns:xlink="http://www.w3.org/1999/xlink" width="64" height="64"><defs><style type="text/css"></style></defs><path d="M585.490101 502.793051c4.509737 4.283475 10.489535 6.949495 17.131313 6.949495 14.060606 0 25.413818-11.641535 25.413818-25.984 0-9.106101-4.58602-17.051152-11.474747-21.70699l0.288323-0.369778c-6.520242-4.342949-13.323636-8.216566-20.328727-11.761778 28.812929-24.753131 47.172525-61.888646 47.172525-103.429172 0-74.616242-59.101091-135.111111-132.061091-135.111111-72.954828 0-132.141253 60.494869-132.141253 135.111111 0 41.474586 18.363475 80.029737 47.131152 104.807434-59.591111 30.020525-101.847919 85.328162-107.297616 163.126303l0.040081 0c0 0-0.040081-1.126141-0.040081-0.964525 0 14.343758 11.388121 25.24703 25.413818 25.24703 14.015354 0 25.403475-10.555475 25.403475-24.897939 0-0.142222-0.034909 0.615434-0.034909 0.615434l0.121535 0c7.580444-77.798141 67.953778-131.388768 141.403798-131.388768 27.050667 0 52.262788 7.156364 73.782303 20.580848L585.490101 502.793051 585.490101 502.793051 585.490101 502.793051zM430.317899 346.490828c0-45.919677 36.389495-83.141818 81.313616-83.141818 44.88404 0 81.237333 37.222141 81.237333 83.141818 0 45.90804-36.353293 83.140525-81.237333 83.140525C466.707394 429.631354 430.317899 392.398869 430.317899 346.490828L430.317899 346.490828 430.317899 346.490828 430.317899 346.490828zM653.858909 611.515475c0-6.808566 2.742303-13.549899 7.453737-18.363475 4.672646-4.818747 11.313131-7.621818 17.954909-7.621818 6.641778 0 13.278384 2.803071 17.949737 7.621818 4.716606 4.813576 7.460202 11.554909 7.460202 18.363475L653.858909 611.515475 653.858909 611.515475zM762.065455 403.136646c6.146586 5.979798 6.101333 5.904808 11.30796 10.918788 5.166545 5.041131 10.287838 18.545778 0 29.081859-10.282667 10.534788-134.635313 137.69697-134.635313 137.69697s-57.060848 24.26699-60.051394 25.575434c-2.989253 1.312323-5.569939-1.676929-4.257616-4.818747 1.308444-3.110788 25.000081-58.792081 25.000081-58.792081s126.566141-130.111354 134.848646-138.576162C742.509899 395.778586 755.833535 397.151677 762.065455 403.136646L762.065455 403.136646 762.065455 403.136646 762.065455 403.136646zM894.939798 93.090909 129.060202 93.090909C85.53503 93.090909 50.323394 129.753212 50.323394 174.985051l0 505.69697c0 45.288727 40.454465 83.934384 83.944727 83.934384l503.646384 0 23.606303-60.741818-553.111273 2.66602L108.409535 151.171879l807.186101 0 0 555.368727-293.540202-2.66602 15.859071 60.741818 251.822545 0c43.485091 0 83.939556-38.645657 83.939556-83.934384L973.676606 174.985051C973.676606 129.753212 938.430061 93.090909 894.939798 93.090909L894.939798 93.090909 894.939798 93.090909zM488.626424 764.616404l46.752323 0 0 83.944727L488.626424 848.561131 488.626424 764.616404 488.626424 764.616404 488.626424 764.616404zM260.177455 848.561131l503.651556 0L763.82901 899.878788 260.177455 899.878788 260.177455 848.561131 260.177455 848.561131 260.177455 848.561131zM260.177455 848.561131" p-id="10136" fill="#2198f2"></path></svg>