<?xml version="1.0" standalone="no"?><!DOCTYPE svg PUBLIC "-//W3C//DTD SVG 1.1//EN" "http://www.w3.org/Graphics/SVG/1.1/DTD/svg11.dtd"><svg t="1503112722167" class="icon" style="" viewBox="0 0 1024 1024" version="1.1" xmlns="http://www.w3.org/2000/svg" p-id="9332" xmlns:xlink="http://www.w3.org/1999/xlink" width="48" height="48"><defs><style type="text/css"></style></defs><path d="M935.716571 658.037029c9.347657-9.274514 15.140571-22.1184 15.140571-36.322743 0-28.277029-22.922971-51.2-51.2-51.2s-51.2 22.922971-51.2 51.2c0 2.501486 0.394971 4.900571 0.731429 7.314286L804.571429 629.028571l-36.629943 13.326629-162.7136 22.776686-31.700114 194.135771c18.856229 10.752 32.914286 28.701257 38.268343 50.307657L643.657143 877.714286l0 29.257143-30.076343 30.076343c-4.125257 40.5504-37.9904 72.323657-79.637943 72.323657-44.4416 0-80.457143-36.015543-80.457143-80.457143 0-1.989486 0.438857-3.861943 0.585143-5.822171l-314.88-144.325486c-14.687086 15.784229-35.474286 25.8048-58.733714 25.8048-44.4416 0-80.457143-36.015543-80.457143-80.457143 0-37.844114 26.2144-69.368686 61.425371-77.941029l78.175086-325.749029c-37.727086-6.656-66.4576-39.409371-66.4576-79.0528 0-44.4416 36.015543-80.457143 80.457143-80.457143 29.227886 0 54.5792 15.740343 68.666514 39.072914l377.578057-104.170057c0-0.248686-0.073143-0.482743-0.073143-0.731429 0-44.426971 36.015543-80.457143 80.457143-80.457143s80.457143 36.030171 80.457143 80.457143c0 28.072229-14.409143 52.721371-36.205714 67.115886l183.3984 379.889371c40.506514 4.169143 72.235886 38.005029 72.235886 79.623314 0 18.856229-6.7584 35.986286-17.627429 49.693257L935.716571 658.037029zM820.809143 605.696c0.043886-0.2048 0.1024-0.394971 0.146286-0.599771l-188.445257-107.081143-22.396343 137.172114L820.809143 605.696zM605.725257 482.801371l-185.168457-105.208686-106.7008 103.818971 91.2384 182.4768 175.074743-24.502857L605.725257 482.801371zM575.2832 669.315657l-156.525714 21.9136 82.2272 164.439771c10.079086-4.549486 21.182171-7.211886 32.958171-7.211886 4.081371 0 7.9872 0.6144 11.893029 1.199543L575.2832 669.315657zM533.942857 980.114286c28.277029 0 51.2-22.922971 51.2-51.2s-22.922971-51.2-51.2-51.2-51.2 22.922971-51.2 51.2S505.665829 980.114286 533.942857 980.114286zM460.302629 896.687543c4.4032-10.049829 10.869029-18.929371 18.768457-26.331429l-87.6544-175.294171-230.838857 32.314514c-0.4096 10.254629-2.574629 20.055771-6.480457 28.964571L460.302629 896.687543zM156.423314 698.704457l221.315657-30.983314-83.573029-167.160686-164.644571 160.197486C141.941029 670.398171 151.332571 683.490743 156.423314 698.704457zM29.257143 724.114286c0 28.277029 22.922971 51.2 51.2 51.2s51.2-22.922971 51.2-51.2-22.922971-51.2-51.2-51.2S29.257143 695.837257 29.257143 724.114286zM153.6 190.171429c-28.277029 0-51.2 22.922971-51.2 51.2s22.922971 51.2 51.2 51.2 51.2-22.922971 51.2-51.2S181.877029 190.171429 153.6 190.171429zM198.070857 308.370286c-8.689371 5.778286-18.563657 9.874286-29.184 11.922286l-77.867886 324.432457c7.124114 0.936229 14.0288 2.472229 20.436114 5.149257l173.143771-168.462629L198.070857 308.370286zM215.186286 292.571429l4.242286 0 84.845714 169.691429 97.806629-95.173486-173.114514-98.362514C225.762743 277.533257 221.066971 285.505829 215.186286 292.571429zM605.227886 123.5968l-372.677486 102.8096c0.9216 4.856686 1.506743 9.845029 1.506743 14.965029 0 0.321829-0.087771 0.6144-0.1024 0.936229l187.114057 106.320457 202.196114-196.739657C615.350857 143.945143 609.28 134.275657 605.227886 123.5968zM439.544686 359.1168l170.554514 96.914286 46.445714-284.437943c-5.909943-1.828571-11.512686-4.256914-16.749714-7.314286L439.544686 359.1168zM731.428571 95.085714c0-28.277029-22.922971-51.2-51.2-51.2s-51.2 22.922971-51.2 51.2c0 28.277029 22.922971 51.2 51.2 51.2S731.428571 123.362743 731.428571 95.085714zM700.298971 172.704914c-4.856686 1.258057-9.888914 2.004114-15.067429 2.340571l-48.362057 296.199314 193.623771 110.006857c10.678857-18.212571 28.145371-31.744 49.093486-37.156571L700.298971 172.704914z" p-id="9333" fill="#2198f2"></path><path d="M921.6 906.971429l0-14.628571 58.514286 0 0 14.628571L921.6 906.971429zM906.971429 863.085714l58.514286 0 0 14.628571-58.514286 0L906.971429 863.085714zM950.857143 848.457143l-58.514286 0 0-14.628571 58.514286 0L950.857143 848.457143zM936.228571 757.76l-102.4 40.96 0 146.285714 58.514286-23.405714 73.142857 0-146.285714 58.514286-146.285714-58.514286 0-14.628571 0-14.628571 0-146.285714 0-14.628571 0-14.628571 146.285714-58.514286 146.285714 58.514286 0 14.628571 0 14.628571 0 73.142857-29.257143 0L936.228571 757.76zM702.171429 904.045714l102.4 40.96 0-146.285714-102.4-40.96L702.171429 904.045714zM819.2 687.542857l-109.714286 43.885714 109.714286 43.885714 109.714286-43.885714L819.2 687.542857z" p-id="9334" fill="#2198f2"></path></svg>