<?xml version="1.0" standalone="no"?><!DOCTYPE svg PUBLIC "-//W3C//DTD SVG 1.1//EN" "http://www.w3.org/Graphics/SVG/1.1/DTD/svg11.dtd"><svg t="1503114586364" class="icon" style="" viewBox="0 0 1024 1024" version="1.1" xmlns="http://www.w3.org/2000/svg" p-id="6126" xmlns:xlink="http://www.w3.org/1999/xlink" width="64" height="64"><defs><style type="text/css"></style></defs><path d="M960.853333 295.253333c-10.24 0-17.066667 6.826667-17.066666 17.066667v568.32c0 29.013333-22.186667 51.2-51.2 51.2H174.08c-29.013333 0-51.2-22.186667-51.2-51.2V167.253333c0-29.013333 22.186667-51.2 51.2-51.2h573.44c10.24 0 17.066667-6.826667 17.066667-17.066666s-6.826667-17.066667-17.066667-17.066667H174.08c-47.786667 0-85.333333 37.546667-85.333333 85.333333v713.386667c0 47.786667 37.546667 85.333333 85.333333 85.333333h718.506667c47.786667 0 85.333333-37.546667 85.333333-85.333333V312.32c0-10.24-6.826667-17.066667-17.066667-17.066667z" p-id="6127" fill="#2198f2"></path><path d="M571.733333 474.453333c1.706667 5.12 5.12 8.533333 10.24 10.24 1.706667 0 37.546667 13.653333 69.973334 13.653334 22.186667 0 39.253333-5.12 51.2-17.066667l187.733333-187.733333c6.826667-6.826667 6.826667-17.066667 0-23.893334l-104.106667-104.106666c-6.826667-6.826667-17.066667-6.826667-23.893333 0l-187.733333 187.733333c-34.133333 34.133333-5.12 112.64-3.413334 121.173333z m29.013334-98.986666l175.786666-175.786667 80.213334 80.213333-175.786667 175.786667c-6.826667 6.826667-18.773333 8.533333-27.306667 8.533333-18.773333 0-40.96-5.12-51.2-8.533333-8.533333-23.893333-15.36-64.853333-1.706666-80.213333zM913.066667 250.88c3.413333 3.413333 8.533333 5.12 11.946666 5.12s8.533333-1.706667 11.946667-5.12l15.36-15.36c17.066667-17.066667 27.306667-39.253333 27.306667-64.853333 0-23.893333-10.24-47.786667-27.306667-64.853334S913.066667 78.506667 887.466667 78.506667c-23.893333 0-47.786667 10.24-64.853334 27.306666l-15.36 15.36c-6.826667 6.826667-6.826667 17.066667 0 23.893334l105.813334 105.813333z m-64.853334-119.466667c20.48-20.48 58.026667-20.48 80.213334 0 10.24 10.24 17.066667 25.6 17.066666 39.253334 0 15.36-5.12 29.013333-17.066666 39.253333l-3.413334 3.413333-80.213333-80.213333 3.413333-1.706667zM865.28 648.533333c0-10.24-6.826667-17.066667-17.066667-17.066666H220.16c-10.24 0-17.066667 6.826667-17.066667 17.066666s6.826667 17.066667 17.066667 17.066667h628.053333c8.533333 0 17.066667-6.826667 17.066667-17.066667zM220.16 798.72c-10.24 0-17.066667 6.826667-17.066667 17.066667s6.826667 17.066667 17.066667 17.066666h329.386667c10.24 0 17.066667-6.826667 17.066666-17.066666s-6.826667-17.066667-17.066666-17.066667H220.16z" p-id="6128" fill="#2198f2"></path></svg>