<?xml version="1.0" standalone="no"?><!DOCTYPE svg PUBLIC "-//W3C//DTD SVG 1.1//EN" "http://www.w3.org/Graphics/SVG/1.1/DTD/svg11.dtd"><svg t="1503039389488" class="icon" style="" viewBox="0 0 1024 1024" version="1.1" xmlns="http://www.w3.org/2000/svg" p-id="2331" xmlns:xlink="http://www.w3.org/1999/xlink" width="48" height="48"><defs><style type="text/css"></style></defs><path d="M119.988706 1024c-22.708706 0-41.381647-9.336471-64.39153-32.165647a100.291765 100.291765 0 0 1-25.479529-63.969882V89.208471c0-27.708235 7.168-45.598118 25.479529-63.909647 20.720941-13.071059 39.755294-25.359059 64.39153-25.359059h499.651765c3.132235 0 11.143529 7.890824 14.998588 11.685647l260.818823 266.601412c6.505412 5.963294 11.866353 18.130824 11.866353 21.744941v69.632c0 15.480471-10.480941 25.840941-26.081882 25.840941-16.082824 0-26.081882-9.878588-26.081882-25.840941v-40.899765h-176.248471c-22.407529 0-46.802824-4.517647-69.511529-26.985412-11.926588-11.324235-18.672941-44.875294-18.672942-65.114353v-184.259764h-470.738823c-7.649882 0-18.130824 0-27.648 9.456941-9.577412 9.396706-9.577412 19.817412-9.577412 27.407059v838.656c0 7.589647 0 18.010353 9.577412 27.407058 9.456941 9.456941 19.998118 9.456941 27.648 9.456942h698.066823c7.589647 0 18.130824 0 27.648-9.456942 9.517176-9.396706 9.517176-19.817412 9.517177-27.407058v-21.263059c0-15.962353 9.999059-25.780706 26.081882-25.780706 8.734118 0 18.191059 5.059765 23.732706 12.589176 2.349176 3.312941 2.951529 41.200941 2.95153 41.200942 0 27.768471-7.228235 45.778824-25.47953 64.030117-20.720941 13.191529-39.875765 25.359059-64.391529 25.359059h-698.127059z m512.542118-787.335529c0 14.336 8.734118 51.2 51.561411 51.2h155.708236l-207.209412-205.884236-0.060235 154.684236z" fill="#8aaff9" p-id="2332"></path><path d="M993.882353 691.380706a30.117647 30.117647 0 0 1-30.117647 29.997176h-525.914353a30.117647 30.117647 0 0 1-30.177882-29.997176 30.117647 30.117647 0 0 1 30.177882-29.997177h525.914353a30.117647 30.117647 0 0 1 30.117647 29.997177z" fill="#8aaff9" p-id="2333"></path><path d="M634.639059 496.218353a29.756235 29.756235 0 0 1 0 42.345412l-175.525647 174.20047a30.418824 30.418824 0 0 1-42.646588 0 29.816471 29.816471 0 0 1 0-42.405647l175.465411-174.019764a30.177882 30.177882 0 0 1 42.706824-0.120471z" fill="#8aaff9" p-id="2334"></path></svg>