<?xml version="1.0" encoding="utf-8"?>
<!-- Generator: Adobe Illustrator 16.0.0, SVG Export Plug-In . SVG Version: 6.00 Build 0)  -->
<!DOCTYPE svg PUBLIC "-//W3C//DTD SVG 1.1//EN" "http://www.w3.org/Graphics/SVG/1.1/DTD/svg11.dtd">
<svg version="1.1" id="图层_1" xmlns="http://www.w3.org/2000/svg" xmlns:xlink="http://www.w3.org/1999/xlink" x="0px" y="0px"
	 width="300px" height="180px" viewBox="0 0 300 180" enable-background="new 0 0 300 180" xml:space="preserve">
<g>
	<g>
		<g>
			<defs>
				<rect id="SVGID_1_" x="81.533" y="22.886" width="136.855" height="136.068"/>
			</defs>
			<clipPath id="SVGID_2_">
				<use xlink:href="#SVGID_1_"  overflow="visible"/>
			</clipPath>
			<path clip-path="url(#SVGID_2_)" d="M205.5,39.012h-10.527v-3.158c0-7.106-5.79-12.897-12.896-12.897H94.43
				c-7.106,0-12.897,5.791-12.897,12.897v95.016c0,7.106,5.791,12.896,12.897,12.896h11.844v2.105
				c0,7.107,5.791,12.897,12.897,12.897h86.33c7.107,0,12.897-5.79,12.897-12.897V51.909
				C218.397,44.803,212.607,39.012,205.5,39.012L205.5,39.012z M165.757,135.344v-10.528c0-4.211,3.422-7.633,7.633-7.633h11.845
				L165.757,135.344z M86.797,130.869V35.854c0-4.211,3.421-7.632,7.633-7.632h87.12c4.211,0,7.633,3.421,7.633,7.632v76.065
				h-16.056c-7.106,0-12.897,5.791-12.897,12.896v13.688h-65.8C90.218,138.503,86.797,135.081,86.797,130.869L86.797,130.869z
				 M213.134,145.872c0,4.212-3.422,7.634-7.634,7.634h-86.33c-4.211,0-7.633-3.422-7.633-7.634v-2.105h52.64
				c0.79,0,1.316-0.263,1.843-0.789l27.899-26.585v-0.262c0.264-0.264,0.264-0.526,0.526-0.526v-0.264c0-0.263,0-0.526,0.264-0.789
				V44.277h10.527c4.211,0,7.633,3.421,7.633,7.632v93.963H213.134L213.134,145.872z"/>
		</g>
	</g>
	<path d="M103.378,57.173h69.485c1.579,0,2.633-1.053,2.633-2.632s-1.054-2.632-2.633-2.632h-69.485
		c-1.58,0-2.632,1.053-2.632,2.632S101.799,57.173,103.378,57.173L103.378,57.173z M103.378,78.755h69.485
		c1.579,0,2.633-1.053,2.633-2.632s-1.054-2.632-2.633-2.632h-69.485c-1.58,0-2.632,1.053-2.632,2.632
		S101.799,78.755,103.378,78.755L103.378,78.755z M163.125,97.97c0-1.579-1.053-2.633-2.632-2.633h-57.115
		c-1.58,0-2.632,1.054-2.632,2.633s1.053,2.632,2.632,2.632h57.115C162.072,100.602,163.125,99.285,163.125,97.97L163.125,97.97z"/>
</g>
</svg>
