<?xml version="1.0" encoding="utf-8"?>
<!-- Generator: Adobe Illustrator 16.0.0, SVG Export Plug-In . SVG Version: 6.00 Build 0)  -->
<!DOCTYPE svg PUBLIC "-//W3C//DTD SVG 1.1//EN" "http://www.w3.org/Graphics/SVG/1.1/DTD/svg11.dtd">
<svg version="1.1" id="图层_1" xmlns="http://www.w3.org/2000/svg" xmlns:xlink="http://www.w3.org/1999/xlink" x="0px" y="0px"
	 width="300px" height="180px" viewBox="0 0 300 180" enable-background="new 0 0 300 180" xml:space="preserve">
<g>
	<g>
		<path d="M214.75,98.753c-9.06-9.06-23.827-9.06-32.886,0c-4.217,4.216-6.941,9.961-6.941,16.295
			c0,6.335,2.706,12.062,6.628,16.296v0.295c3.02,3.02,8.471,5.138,12.705,6.039v15.688h-56.124c-27.16-0.019-27.16-41.651,0-41.651
			h17.493c20.807,0,19.61-30.768,0-30.768h-52.717V65.259c4.216-0.902,10.79-3.02,13.81-6.04c9.06-9.06,9.06-23.827,0-32.886
			c-9.06-8.746-23.532-9.041-32.591-0.295l-0.295,0.295c-9.059,9.059-9.059,23.533-0.294,32.573l0.294,0.295
			c3.02,3.02,8.287,5.138,12.521,6.04v16.59c0,3.02,2.412,5.432,5.432,5.727h54.448c11.159,0,11.767,17.493,0,17.493H138.74
			c-35.906,0-35.906,54.908,0,54.908h58.186c3.02-0.295,5.138-2.707,5.138-5.432v-16.904c4.216-0.901,9.685-3.02,12.705-6.039
			c4.217-4.216,6.941-10.256,6.941-16.591C221.691,109.009,218.985,102.969,214.75,98.753L214.75,98.753z M88.804,54.598
			c-6.021-6.426-6.021-16.885,0-22.906l0.405-0.405c6.021-6.021,16.075-6.021,22.519,0c6.021,6.426,6.021,16.48,0,22.906
			C105.302,60.638,95.248,60.638,88.804,54.598L88.804,54.598z M209.705,126.87c-6.39,6.39-16.388,6.39-22.777,0
			c-2.799-2.799-4.788-6.795-4.788-11.582c0-4.401,1.603-8.378,4.788-11.177c6.39-6.39,16.774-6.39,22.759,0
			c2.799,2.799,4.788,7.181,4.788,11.177C214.492,119.688,212.891,123.685,209.705,126.87L209.705,126.87z"/>
	</g>
</g>
</svg>
