<?xml version="1.0" standalone="no"?><!DOCTYPE svg PUBLIC "-//W3C//DTD SVG 1.1//EN" "http://www.w3.org/Graphics/SVG/1.1/DTD/svg11.dtd"><svg t="1503110119269" class="icon" style="" viewBox="0 0 1024 1024" version="1.1" xmlns="http://www.w3.org/2000/svg" p-id="2918" xmlns:xlink="http://www.w3.org/1999/xlink" width="48" height="48"><defs><style type="text/css"></style></defs><path d="M677.953384 166.148661 195.412006 166.148661c-12.765645 0-20.425032 10.212516-20.425032 20.425032S182.646361 206.998726 195.412006 206.998726l482.541378 0c12.765645 0 20.425032-10.212516 20.425032-20.425032S688.1659 166.148661 677.953384 166.148661zM662.63461 319.336401c0-10.212516-10.212516-20.425032-20.425032-20.425032L187.752619 298.911369c-10.212516 0-20.425032 10.212516-20.425032 20.425032s10.212516 20.425032 20.425032 20.425032l457.010088 0C654.975223 339.761432 662.63461 332.102046 662.63461 319.336401zM187.752619 444.439721c-10.212516 0-20.425032 10.212516-20.425032 20.425032 0 10.212516 10.212516 20.425032 20.425032 20.425032l293.609833 0c10.212516 0 20.425032-10.212516 20.425032-20.425032 0-10.212516-10.212516-20.425032-20.425032-20.425032L187.752619 444.439721zM414.981099 587.414944l-229.781608 0c-10.212516 0-20.425032 10.212516-20.425032 20.425032s10.212516 20.425032 20.425032 20.425032l229.781608 0c10.212516 0 20.425032-10.212516 20.425032-20.425032S427.746743 587.414944 414.981099 587.414944zM93.286847 829.962197 93.286847 46.151599c0-2.553129 2.553129-7.659387 7.659387-7.659387l638.282245 0c2.553129 0 7.659387 2.553129 7.659387 7.659387l0 377.86309c15.318774 0 22.978161 0 40.850063 0L787.73793 46.151599c0-25.53129-20.425032-45.956321-45.956321-45.956321l-638.282245 0C72.861815-2.357851 52.436783 20.62031 52.436783 46.151599l0 786.363727c0 25.53129 20.425032 45.956321 45.956321 45.956321l306.375478 0 0-38.296934c0 0 0-2.553129 0-2.553129l-306.375478 0C95.839976 837.621584 93.286847 835.068455 93.286847 829.962197zM828.587994 1021.446871l-2.553129 0c-12.765645 0-22.978161-7.659387-28.084419-17.871903L716.250319 855.493487c-5.106258 0-10.212516 0-12.765645 0l-79.146999 145.528352c-5.106258 12.765645-17.871903 17.871903-30.637547 17.871903l-2.553129 0c-12.765645-2.553129-25.53129-10.212516-30.637547-22.978161L537.53129 934.640485l-66.381354 15.318774c-12.765645 2.553129-28.084419-2.553129-35.743805-12.765645-7.659387-10.212516-10.212516-25.53129-2.553129-38.296934l91.912643-168.506513c-10.212516-22.978161-12.765645-48.50945-12.765645-74.040741 0-109.784546 89.359515-199.144061 199.144061-199.144061 53.615709 0 104.678288 20.425032 142.975223 58.721967 38.296934 38.296934 58.721967 89.359515 58.721967 140.422094 0 25.53129-5.106258 48.50945-12.765645 71.487612l91.912643 171.059642c7.659387 12.765645 5.106258 28.084419-2.553129 38.296934-7.659387 10.212516-22.978161 15.318774-35.743805 12.765645l-66.381354-15.318774L861.778671 998.46871C856.672412 1011.234355 843.906767 1021.446871 828.587994 1021.446871L828.587994 1021.446871zM739.228479 814.643423l89.359515 163.400255 33.190676-89.359515 94.465772 22.978161-97.018901-181.272158 5.106258-7.659387c10.212516-20.425032 12.765645-43.403192 15.318774-63.828225 0-43.403192-15.318774-84.253257-45.956321-114.890804-30.637547-30.637547-71.487612-48.50945-114.890804-48.50945-89.359515 0-160.847126 71.487612-163.400255 160.847126 0 22.978161 5.106258 45.956321 15.318774 66.381354l5.106258 7.659387-99.57203 178.719029 94.465772-20.425032 30.637547 89.359515 89.359515-163.400255 17.871903 2.553129c2.553129 0 7.659387 0 10.212516 0 2.553129 0 5.106258 0 7.659387 0L739.228479 814.643423zM711.144061 845.280971 711.144061 845.280971c-53.615709 0-102.125159-20.425032-137.868965-58.721967-35.743805-35.743805-56.168838-86.806386-56.168838-137.868965 0-107.231417 86.806386-194.037803 194.037803-194.037803 53.615709 0 102.125159 20.425032 137.868965 58.721967 35.743805 35.743805 56.168838 86.806386 56.168838 137.868965C905.181863 758.474585 818.375478 845.280971 711.144061 845.280971zM711.144061 495.502301c-86.806386 0-155.740868 68.934483-155.740868 155.740868 0 40.850063 15.318774 81.700128 45.956321 109.784546 30.637547 30.637547 68.934483 45.956321 109.784546 45.956321l0 20.425032 0-20.425032c86.806386 0 155.740868-68.934483 155.740868-155.740868 0-40.850063-15.318774-81.700128-45.956321-109.784546C792.844188 510.821075 754.547253 495.502301 711.144061 495.502301z" p-id="2919" fill="#2198f2"></path></svg>