<?xml version="1.0" encoding="utf-8"?>
<!-- Generator: Adobe Illustrator 16.0.0, SVG Export Plug-In . SVG Version: 6.00 Build 0)  -->
<!DOCTYPE svg PUBLIC "-//W3C//DTD SVG 1.1//EN" "http://www.w3.org/Graphics/SVG/1.1/DTD/svg11.dtd">
<svg version="1.1" id="图层_1" xmlns="http://www.w3.org/2000/svg" xmlns:xlink="http://www.w3.org/1999/xlink" x="0px" y="0px"
	 width="91px" height="82px" viewBox="0 0 240 180" enable-background="new 0 0 300 180" xml:space="preserve">
<g>
	<g>
		<path d="M202.453,102.727c-6.598-3.299-4.06-0.762-12.306-4.187c-8.119-3.425-10.148-4.567-10.148-4.567l-0.127-7.865
			c0,0,3.045-2.283,3.933-9.768c1.903,0.634,2.537-2.157,2.664-4.06c0.127-1.649,1.142-7.104-1.142-6.596
			c0.508-3.679,0.888-6.978,0.635-8.626c-0.635-6.089-4.821-12.432-15.223-12.812c-8.88,0.507-14.715,6.85-15.223,12.812
			c-0.254,1.649,0.253,5.075,0.635,8.626c-2.411-0.507-1.27,4.947-1.143,6.596c0.127,1.776,0.761,4.567,2.664,4.06
			c1.015,7.484,3.933,9.768,3.933,9.768l-0.126,7.865c2.79,0.762,3.171,0.127,8.752,2.918c13.066,6.597,13.066,43.511,13.066,43.511
			c0,2.411-1.649,4.313-3.806,4.82h29.303c2.157,0,3.933-1.775,3.933-4.059C212.981,141.29,212.981,107.927,202.453,102.727
			L202.453,102.727z" fill="#2383ea"/>
		<path d="M167.188,100.315c-7.358-3.679-4.44-0.888-13.447-4.566c-8.88-3.679-11.163-5.074-11.163-5.074l-0.127-8.626
			c0,0,3.425-2.664,4.313-10.783c2.029,0.635,2.791-2.537,2.917-4.439c0.127-1.903,1.268-7.865-1.269-7.357
			c0.507-4.06,0.888-7.484,0.761-9.515c-0.634-6.723-5.201-13.7-16.745-14.208c-9.768,0.508-16.11,7.484-16.872,14.208
			c-0.254,1.903,0.254,5.582,0.634,9.515c-2.537-0.508-1.522,5.454-1.396,7.357c0.127,2.03,0.761,5.074,2.918,4.439
			c1.141,8.119,4.313,10.783,4.313,10.783l-0.127,8.626c0,0-2.029,1.269-11.163,5.074c-8.88,3.679-6.089,0.762-13.446,4.439
			C86,105.897,86,140.782,86,140.782c0,2.41,2.029,4.313,4.313,4.313h83.851c2.41,0,4.313-2.03,4.313-4.44
			C178.73,140.909,178.73,106.151,167.188,100.315L167.188,100.315z" fill="#2383ea"/>
	</g>
</g>
</svg>
