<?xml version="1.0" encoding="utf-8"?>
<!-- Generator: Adobe Illustrator 16.0.0, SVG Export Plug-In . SVG Version: 6.00 Build 0)  -->
<!DOCTYPE svg PUBLIC "-//W3C//DTD SVG 1.1//EN" "http://www.w3.org/Graphics/SVG/1.1/DTD/svg11.dtd">
<svg version="1.1" id="图层_1" xmlns="http://www.w3.org/2000/svg" xmlns:xlink="http://www.w3.org/1999/xlink" x="0px" y="0px"
	 width="91px" height="82px" viewBox="0 0 240 180" enable-background="new 0 0 300 180" xml:space="preserve">
<g>
	<g>
		<g>
			<defs>
				<rect id="SVGID_1_" x="91.512" y="31.89" width="116.816" height="116.941"/>
			</defs>
			<clipPath id="SVGID_2_">
				<use xlink:href="#SVGID_1_"  overflow="visible"/>
			</clipPath>
			<path clip-path="url(#SVGID_2_)" d="M149.857,31.964c-32.1,0-58.362,26.263-58.362,58.362c0,32.099,26.263,58.362,58.362,58.362
				c32.099,0,58.362-26.264,58.362-58.362C208.22,58.227,181.956,31.964,149.857,31.964L149.857,31.964z M149.857,146.5
				c-31.37,0-56.174-24.804-56.174-56.174c0-31.37,24.804-56.174,56.174-56.174c31.37,0,56.174,24.804,56.174,56.174
				C206.031,121.696,181.228,146.5,149.857,146.5L149.857,146.5z" fill="#2383ea"/>
		</g>
	</g>
	<path d="M127.242,78.654c-6.565,0-11.672,5.106-11.672,11.672c0,6.565,5.107,11.673,11.672,11.673
		c6.566,0,11.673-5.107,11.673-11.673C138.915,83.76,133.808,78.654,127.242,78.654L127.242,78.654z M127.242,99.81
		c-5.107,0-9.484-4.377-9.484-9.483s4.377-9.484,9.484-9.484s9.484,4.377,9.484,9.484S132.349,99.81,127.242,99.81L127.242,99.81z
		 M150.587,146.5h56.174c0,0,0.729,0,0.729,0.729v0.729c0,0,0,0.73-0.729,0.73h-56.174c-0.729,0-0.729,0-0.729-0.73L150.587,146.5
		C149.857,146.5,149.857,146.5,150.587,146.5L150.587,146.5z M149.857,56.039c-6.566,0-11.673,5.106-11.673,11.672
		c0,6.566,5.107,11.673,11.673,11.673c6.565,0,11.672-5.106,11.672-11.673C161.529,61.145,156.423,56.039,149.857,56.039
		L149.857,56.039z M149.857,77.195c-5.106,0-9.484-4.377-9.484-9.484c0-5.106,4.378-9.483,9.484-9.483s9.483,4.377,9.483,9.483
		C159.341,72.817,154.964,77.195,149.857,77.195L149.857,77.195z M172.473,78.654c-6.566,0-11.673,5.106-11.673,11.672
		c0,6.565,5.106,11.673,11.673,11.673c6.565,0,11.672-5.107,11.672-11.673C184.145,83.76,179.038,78.654,172.473,78.654
		L172.473,78.654z M172.473,99.81c-5.106,0-9.483-4.377-9.483-9.483s4.377-9.484,9.483-9.484s9.483,4.377,9.483,9.484
		S177.579,99.81,172.473,99.81L172.473,99.81z M149.857,101.269c-6.566,0-11.673,5.106-11.673,11.673
		c0,6.565,5.107,11.672,11.673,11.672c6.565,0,11.672-5.106,11.672-11.672C161.529,106.375,156.423,101.269,149.857,101.269
		L149.857,101.269z M149.857,122.425c-5.106,0-9.484-4.377-9.484-9.483s4.378-9.483,9.484-9.483s9.483,4.377,9.483,9.483
		S154.964,122.425,149.857,122.425L149.857,122.425z" fill="#2383ea"/>
</g>
</svg>
