<?xml version="1.0" encoding="utf-8"?>
<!-- Generator: Adobe Illustrator 16.0.0, SVG Export Plug-In . SVG Version: 6.00 Build 0)  -->
<!DOCTYPE svg PUBLIC "-//W3C//DTD SVG 1.1//EN" "http://www.w3.org/Graphics/SVG/1.1/DTD/svg11.dtd">
<svg version="1.1" id="图层_1" xmlns="http://www.w3.org/2000/svg" xmlns:xlink="http://www.w3.org/1999/xlink" x="0px" y="0px"
	 width="300px" height="180px" viewBox="0 0 300 180" enable-background="new 0 0 300 180" xml:space="preserve">
<g>
	<g>
		<g>
			<defs>
				<rect id="SVGID_1_" x="12.38" y="21.723" width="274.12" height="137.274"/>
			</defs>
			<clipPath id="SVGID_2_">
				<use xlink:href="#SVGID_1_"  overflow="visible"/>
			</clipPath>
			<path clip-path="url(#SVGID_2_)" d="M229.308,21.81H61.839v129.408H12.36v7.612h224.56v-7.612h-7.612V21.81z M69.451,151.218
				V29.422h152.244v121.795H69.451z"/>
		</g>
	</g>
	<path d="M77.063,143.606h137.02V52.259H77.063V143.606z M84.676,59.871h121.796v76.122H84.676V59.871z"/>
	<path d="M167.919,83.522l14.41,14.41l-14.41,14.41l5.383,5.383l19.791-19.793L173.302,78.14L167.919,83.522z M120.316,78.14
		l-19.792,19.792l19.792,19.793l5.381-5.383l-14.41-14.41l14.41-14.41L120.316,78.14z M135.685,118.866l-6.592-3.806l24.644-42.702
		l6.597,3.807L135.685,118.866z M259.757,151.218h26.643v7.612h-26.643V151.218z M244.532,151.218h7.613v7.612h-7.613V151.218z
		 M206.472,37.035h7.611v7.612h-7.611V37.035L206.472,37.035z M191.247,37.035h7.612v7.612h-7.612V37.035z M176.022,37.035h7.612
		v7.612h-7.612V37.035z"/>
</g>
</svg>
