<?xml version="1.0" standalone="no"?><!DOCTYPE svg PUBLIC "-//W3C//DTD SVG 1.1//EN" "http://www.w3.org/Graphics/SVG/1.1/DTD/svg11.dtd"><svg t="1503112073596" class="icon" style="" viewBox="0 0 1024 1024" version="1.1" xmlns="http://www.w3.org/2000/svg" p-id="4398" xmlns:xlink="http://www.w3.org/1999/xlink" width="48" height="48"><defs><style type="text/css"></style></defs><path d="M602.248533 745.403733H955.733333V68.266667H68.266667v677.137066h336.008533L351.709867 955.733333h303.104l-52.565334-210.3296zM209.1008 443.733333a136.533333 136.533333 0 1 0 0-68.266666H68.266667v68.266666h140.834133z m533.162667 580.266667H264.192l52.565333-210.3296H68.266667a68.266667 68.266667 0 0 1-68.266667-68.266667V68.266667a68.266667 68.266667 0 0 1 68.266667-68.266667h887.466666a68.266667 68.266667 0 0 1 68.266667 68.266667v677.137066a68.266667 68.266667 0 0 1-68.266667 68.266667h-266.0352l52.565334 210.3296z m210.875733-648.533333h-190.190933c-14.336-77.892267-76.8-136.533333-151.688534-136.533334-17.066667 0-30.993067 15.291733-30.993066 34.133334s13.858133 34.133333 30.993066 34.133333c51.2 0 92.842667 45.8752 92.842667 102.4s-41.642667 102.4-92.842667 102.4c-17.066667 0-30.993067 15.291733-30.993066 34.133333s13.858133 34.133333 30.993066 34.133334c74.888533 0 137.352533-58.641067 151.688534-136.533334h190.190933v-68.266666zM341.333333 477.866667a68.266667 68.266667 0 1 1 0-136.533334 68.266667 68.266667 0 0 1 0 136.533334z" p-id="4399" fill="#2198f2"></path></svg>