<?xml version="1.0" encoding="utf-8"?>
<!-- Generator: Adobe Illustrator 16.0.0, SVG Export Plug-In . SVG Version: 6.00 Build 0)  -->
<!DOCTYPE svg PUBLIC "-//W3C//DTD SVG 1.1//EN" "http://www.w3.org/Graphics/SVG/1.1/DTD/svg11.dtd">
<svg version="1.1" id="图层_1" xmlns="http://www.w3.org/2000/svg" xmlns:xlink="http://www.w3.org/1999/xlink" x="0px" y="0px"
	 width="300px" height="180px" viewBox="0 0 300 180" enable-background="new 0 0 300 180" xml:space="preserve">
<g>
	<path d="M149.525,157.051C112.842,157.051,83,127.209,83,90.525C83,53.842,112.842,24,149.525,24
		c36.684,0,66.526,29.842,66.526,66.525C216.051,127.209,186.209,157.051,149.525,157.051L149.525,157.051z M149.525,32.998
		c-31.72,0-57.527,25.808-57.527,57.528c0,31.721,25.807,57.527,57.527,57.527c31.721,0,57.528-25.807,57.528-57.527
		C207.053,58.805,181.246,32.998,149.525,32.998L149.525,32.998z"/>
	<path d="M155.741,49.654h-12.287c-5.089,0-9.215,4.196-9.215,9.372c0,5.175,4.126,9.373,9.215,9.373h12.287
		c5.089,0,9.215-4.197,9.215-9.373C164.956,53.851,160.83,49.654,155.741,49.654L155.741,49.654z M155.741,62.15h-12.287
		c-1.689,0-3.072-1.406-3.072-3.124s1.382-3.125,3.072-3.125h12.287c1.689,0,3.071,1.406,3.071,3.125S157.431,62.15,155.741,62.15
		L155.741,62.15z M155.741,80.895h-12.287c-5.089,0-9.215,4.197-9.215,9.373c0,5.175,4.126,9.372,9.215,9.372h12.287
		c5.089,0,9.215-4.197,9.215-9.372C164.956,85.092,160.83,80.895,155.741,80.895L155.741,80.895z M155.741,93.392h-12.287
		c-1.689,0-3.072-1.406-3.072-3.124c0-1.718,1.382-3.124,3.072-3.124h12.287c1.689,0,3.071,1.406,3.071,3.124
		C158.813,91.985,157.431,93.392,155.741,93.392L155.741,93.392z M155.741,112.136h-12.287c-5.089,0-9.215,4.197-9.215,9.373
		s4.126,9.372,9.215,9.372h12.287c5.089,0,9.215-4.196,9.215-9.372S160.83,112.136,155.741,112.136L155.741,112.136z
		 M155.741,124.633h-12.287c-1.689,0-3.072-1.406-3.072-3.124c0-1.719,1.382-3.124,3.072-3.124h12.287
		c1.689,0,3.071,1.405,3.071,3.124C158.813,123.227,157.431,124.633,155.741,124.633L155.741,124.633z M121.953,118.385
		c-3.287,0-6.369-1.303-8.693-3.655c-2.313-2.364-3.593-5.498-3.593-8.841c0-3.344,1.28-6.478,3.593-8.842
		c2.324-2.364,5.406-3.655,8.693-3.655h6.143v-6.248h-6.143c-10.178,0-18.43,8.394-18.43,18.745c0,10.351,8.252,18.744,18.43,18.744
		v6.248l9.215-9.373l-9.215-9.372V118.385z M177.243,55.902h-6.145v6.249h6.145c3.286,0,6.367,1.302,8.692,3.655
		c2.324,2.364,3.594,5.499,3.594,8.841c0,3.344-1.28,6.478-3.594,8.841c-2.325,2.354-5.406,3.656-8.692,3.656v-6.249l-9.216,9.373
		l9.216,9.372v-6.248c10.177,0,18.43-8.394,18.43-18.745C195.673,64.296,187.42,55.902,177.243,55.902L177.243,55.902z"/>
</g>
</svg>
