<?xml version="1.0" standalone="no"?><!DOCTYPE svg PUBLIC "-//W3C//DTD SVG 1.1//EN" "http://www.w3.org/Graphics/SVG/1.1/DTD/svg11.dtd"><svg t="1503039564215" class="icon" style="" viewBox="0 0 1024 1024" version="1.1" xmlns="http://www.w3.org/2000/svg" p-id="3136" xmlns:xlink="http://www.w3.org/1999/xlink" width="48" height="48"><defs><style type="text/css"></style></defs><path d="M974.456 775.904 726.712 775.904l-66.064 0 0 77.04 66.064 61.648 0 15.408L297.288 930l0-15.408 66.064-61.648 0-77.04-66.064 0L49.544 775.904C22.176 775.904 0 755.208 0 729.68L0 113.328c0-25.536 22.176-46.232 49.544-46.232l924.904 0c27.368 0 49.544 20.688 49.544 46.232L1023.992 729.68C1024 755.208 1001.824 775.904 974.456 775.904M957.936 128.728 66.064 128.728l0 523.904 891.872 0L957.936 128.728z" p-id="3137" fill="#8aaff9"></path><path d="M737.712 314.624c-58.256-49.248-137.824-79.624-225.616-79.624s-167.352 30.368-225.592 79.624l-29.864-33.352c66.592-54.672 156.472-88.272 255.456-88.272 99 0 188.856 33.6 255.464 88.272L737.712 314.624zM512.096 298c71.016 0 135.096 25.664 180.68 66.816l-30.232 33.752c-36.976-35.856-90.584-58.544-150.448-58.544-59.864 0-113.464 22.688-150.456 58.544l-30.216-33.752C377.016 323.664 441.072 298 512.096 298M512.096 403.008c43.168 0 81.272 18.4 104.768 46.568l-26.672 29.792c-17.624-20.808-46.008-34.352-78.096-34.352-32.064 0-60.44 13.544-78.096 34.352l-26.664-29.792C430.808 421.408 468.928 403.008 512.096 403.008M512.096 508c26.792 0 48.488 18.808 48.488 42.016 0 23.2-21.696 41.984-48.488 41.984-26.768 0-48.464-18.784-48.464-41.984C463.632 526.808 485.328 508 512.096 508" p-id="3138" fill="#8aaff9"></path></svg>