<?xml version="1.0" encoding="utf-8"?>
<!-- Generator: Adobe Illustrator 16.0.0, SVG Export Plug-In . SVG Version: 6.00 Build 0)  -->
<!DOCTYPE svg PUBLIC "-//W3C//DTD SVG 1.1//EN" "http://www.w3.org/Graphics/SVG/1.1/DTD/svg11.dtd">
<svg version="1.1" id="图层_1" xmlns="http://www.w3.org/2000/svg" xmlns:xlink="http://www.w3.org/1999/xlink" x="0px" y="0px"
	 width="300px" height="180px" viewBox="0 0 300 180" enable-background="new 0 0 300 180" xml:space="preserve">
<g>
	<g>
		<path d="M106.887,8H74.623c-2.327,0-4.508,0.917-6.146,2.581c-1.625,1.656-2.507,3.851-2.474,6.18c0,0,0.03,2.03,0.03,2.776
			c0,20.773,4.049,40.926,12.035,59.9c7.717,18.324,18.76,34.779,32.826,48.915c14.066,14.128,30.445,25.223,48.684,32.973
			c18.887,8.03,38.943,12.099,59.622,12.099c1.23,0,2.503-0.019,3.78-0.052c4.751-0.125,8.46-3.936,8.445-8.679
			c-0.007-2.666-0.074-32.133-0.074-32.133c-0.003-5.855-3.924-11.06-9.534-12.652l-26.552-7.526
			c-1.554-0.44-3.158-0.661-4.771-0.661c-4.61,0-8.965,1.784-12.266,5.015l-16.779,16.456
			c-23.504-12.086-42.897-31.479-55.06-55.057l16.279-16.772c4.369-4.508,6.025-11.065,4.322-17.116l-7.505-26.673
			C117.898,11.936,112.717,8,106.887,8L106.887,8z" fill="#2383ea"/>
		<path d="M106.887,8H74.623c-2.327,0-4.508,0.917-6.146,2.581c-1.625,1.656-2.507,3.851-2.474,6.18c0,0,0.03,2.03,0.03,2.776
			c0,20.773,4.049,40.926,12.035,59.9c7.717,18.324,18.76,34.779,32.826,48.915c14.066,14.128,30.445,25.223,48.684,32.973
			c18.887,8.03,38.943,12.099,59.622,12.099c1.23,0,2.503-0.019,3.78-0.052c4.751-0.125,8.46-3.936,8.445-8.679
			c-0.007-2.666-0.074-32.133-0.074-32.133c-0.003-5.855-3.924-11.06-9.534-12.652l-26.552-7.526
			c-1.554-0.44-3.158-0.661-4.771-0.661c-4.61,0-8.965,1.784-12.266,5.015l-16.779,16.456
			c-23.504-12.086-42.897-31.479-55.06-55.057l16.279-16.772c4.369-4.508,6.025-11.065,4.322-17.116l-7.505-26.673
			C117.898,11.936,112.717,8,106.887,8L106.887,8z" fill="#2383ea"/>
	</g>
</g>
</svg>
