<?xml version="1.0" standalone="no"?><!DOCTYPE svg PUBLIC "-//W3C//DTD SVG 1.1//EN" "http://www.w3.org/Graphics/SVG/1.1/DTD/svg11.dtd"><svg t="1503037176674" class="icon" style="" viewBox="0 0 1024 1024" version="1.1" xmlns="http://www.w3.org/2000/svg" p-id="2389" xmlns:xlink="http://www.w3.org/1999/xlink" width="48" height="48"><defs><style type="text/css"></style></defs><path d="M991.412898 479.494147a32.499603 32.499603 0 0 0-32.499603 32.499603c0 204.472504-138.173313 377.270395-325.946022 430.207249 70.649138-70.724137 152.323141-202.497528 152.323141-433.40721 0-398.745133-243.384529-501.181382-253.746903-505.331331a36.624553 36.624553 0 0 0-7.674906-1.987476l-7.499908-1.087487a24.999695 24.999695 0 0 0-4.349947-0.387495C229.634697 0.0125 0 229.772195 0 512.00625s229.634697 511.99375 512.056249 511.99375c282.171556 0 511.931251-229.697196 511.931251-511.99375a32.574602 32.574602 0 0 0-32.574602-32.499603m-609.655058-394.995179c-41.661991 44.099462-85.698954 109.373665-113.84861 203.522516H125.498468a448.569524 448.569524 0 0 1 256.246872-203.522516M108.473676 319.683598a16.3623 16.3623 0 0 0 4.999939 0.899989h145.598223c-12.824843 52.349361-20.549749 112.836123-20.999744 182.397773H65.211704a445.219565 445.219565 0 0 1 43.261972-183.297762m8.637394 401.4076a444.03208 444.03208 0 0 1-51.449372-185.535236h172.797891c1.987476 70.649138 11.837356 131.585894 26.499677 183.747757H124.160984a13.849831 13.849831 0 0 0-7.037414 1.724979m17.987281 30.787125h139.998291c30.399629 88.51142 74.624089 149.373177 115.261093 190.135179A448.90702 448.90702 0 0 1 135.098351 751.878322m345.283285 181.560283c-37.562041-26.24968-96.511322-80.899012-135.935841-181.560283h135.935841v181.560283m0-214.134886h-147.4982c-16.062304-50.624382-27.137169-111.248642-29.374641-183.747757h176.872841v183.747757m0-216.384858H303.158799c0.449995-71.161631 9.337386-131.460895 23.087219-182.397774h154.135618v182.397774m0-214.909877H336.245895c39.037023-115.136095 103.748734-175.672856 144.123241-203.747513v203.747513m64.999207-201.922535c40.387007 28.749649 103.423738 89.148912 141.760769 201.922535H545.405842V86.086449m0 234.434638h151.673149c13.749832 50.949378 22.662223 111.248642 23.099718 182.397774H545.405842V320.521087m0 214.997376H719.866213c-2.237473 72.499115-13.249838 133.185874-29.312143 183.747757H545.405842v-183.747757m0 396.47016v-179.997803h133.623369c-38.587029 98.623796-95.87383 152.960633-133.635869 179.997803m393.670195-536.843447A40.899501 40.899501 0 1 0 979.988037 354.308175a40.899501 40.899501 0 0 0-40.9245 40.837001m0-74.174094a34.999573 34.999573 0 1 0-34.999573-34.999573 34.999573 34.999573 0 0 0 34.999573 34.999573m-66.686686-106.173704a25.787185 25.787185 0 1 0-25.787185-25.787185 25.787185 25.787185 0 0 0 25.787185 25.787185m0 0z" p-id="2390" fill="#8aaff9"></path></svg>