<?xml version="1.0" encoding="utf-8"?>
<!-- Generator: Adobe Illustrator 16.0.0, SVG Export Plug-In . SVG Version: 6.00 Build 0)  -->
<!DOCTYPE svg PUBLIC "-//W3C//DTD SVG 1.1//EN" "http://www.w3.org/Graphics/SVG/1.1/DTD/svg11.dtd">
<svg version="1.1" id="图层_1" xmlns="http://www.w3.org/2000/svg" xmlns:xlink="http://www.w3.org/1999/xlink" x="0px" y="0px"
	 width="91px" height="82px" viewBox="0 0 240 180"  xml:space="preserve">
<g>
	<path d="M211.973,82.804l-13.846-13.846V53.569c0-6.3-5.108-11.408-11.408-11.408h-15.392l-13.929-13.932
		c-4.307-4.306-11.288-4.306-15.595,0l-13.932,13.932h-15.303c-6.3,0-11.408,5.108-11.408,11.408v15.303L87.229,82.804
		c-4.306,4.307-4.306,11.289,0,15.594l13.932,13.93v15.392c0,6.3,5.108,11.408,11.408,11.408h15.392l13.843,13.843
		c4.307,4.307,11.288,4.307,15.595,0l13.843-13.843h15.478c6.301,0,11.408-5.108,11.408-11.408v-15.478l13.846-13.844
		C216.276,94.093,216.276,87.111,211.973,82.804L211.973,82.804z M139.194,119.164l-26.625-26.843l7.047-3.254l18.794,14.642
		l42.827-41.584l5.481,2.438L139.194,119.164L139.194,119.164z" fill="#2383ea"/>
</g>
</svg>
